<?xml version="1.0" standalone="no"?>
<!DOCTYPE svg PUBLIC "-//W3C//DTD SVG 20010904//EN"
 "http://www.w3.org/TR/2001/REC-SVG-20010904/DTD/svg10.dtd">
<svg version="1.0" xmlns="http://www.w3.org/2000/svg"
 width="79.000000pt" height="46.000000pt" viewBox="0 0 79.000000 46.000000"
 preserveAspectRatio="xMidYMid meet">

<g transform="translate(0.000000,46.000000) scale(0.100000,-0.100000)"
fill="#000000" stroke="none">
<path d="M0 230 l0 -230 375 0 c206 0 375 4 375 8 0 4 -3 12 -7 18 -5 5 -1 1
9 -8 35 -39 38 -24 38 212 l0 230 -395 0 -395 0 0 -230z m96 93 c9 -27 20 -52
24 -56 4 -4 16 16 27 45 15 38 26 54 42 56 19 3 21 -1 21 -56 0 -32 3 -87 6
-121 6 -52 5 -61 -10 -61 -12 0 -16 10 -17 48 0 26 -4 70 -7 97 l-7 50 -20
-54 c-11 -30 -25 -56 -31 -58 -6 -2 -19 18 -29 44 -29 78 -35 73 -35 -30 0
-83 -2 -97 -16 -97 -15 0 -16 10 -10 77 3 42 6 96 6 120 0 36 3 43 19 43 14 0
24 -13 37 -47z m477 -44 l18 -32 22 22 c45 41 113 23 131 -36 9 -30 -17 -90
-44 -98 -20 -6 -20 -8 -5 -33 l16 -27 -23 26 c-13 15 -35 29 -49 32 -29 7 -49
43 -49 87 0 16 -4 32 -10 35 -6 4 -10 -18 -10 -59 0 -52 -3 -66 -15 -66 -12 0
-15 14 -15 65 0 36 -4 65 -9 65 -14 0 -21 -27 -21 -81 0 -37 -4 -49 -15 -49
-12 0 -15 14 -15 65 0 36 -4 65 -9 65 -14 0 -21 -27 -21 -81 0 -42 -3 -49 -20
-49 -18 0 -20 7 -20 79 l0 79 42 0 c24 1 45 -3 48 -9 4 -5 15 0 26 10 25 26
26 26 47 -10z m-283 -54 c0 -56 3 -65 18 -65 30 0 42 22 42 77 0 46 3 53 20
53 18 0 20 -7 20 -79 l0 -78 -60 -1 c-72 -1 -80 8 -80 97 0 54 2 61 20 61 18
0 20 -7 20 -65z"/>
<path d="M637 253 c-10 -10 -8 -52 3 -74 12 -21 40 -25 58 -7 15 15 15 61 0
76 -13 13 -50 16 -61 5z"/>
</g>
</svg>
